{
  "title": "Airplane(1980)MPEG-4[DaScubaDude]",
  "uid": 14283898,
  "size": 873297138,
  "categoryP": "video",
  "categoryS": "movies",
  "magnet": "?xt=urn:btih:7b8d888d5c2f2afd1e0ae7676937952b4d6dce03&amp;dn=Airplane%281980%29MPEG-4%5BDaScubaDude%5D&amp;tr=udp%3A%2F%2Ftracker.leechers-paradise.org%3A6969&amp;tr=udp%3A%2F%2Fzer0day.ch%3A1337&amp;tr=udp%3A%2F%2Fopen.demonii.com%3A1337&amp;tr=udp%3A%2F%2Ftracker.coppersurfer.tk%3A6969&amp;tr=udp%3A%2F%2Fexodus.desync.com%3A6969",
  "seeders": 54,
  "leechers": 3,
  "uploader": "dascuba",
  "files": 1,
  "time": 1460391224,
  "description": "\nAirplane! (1980)\r\nPG | 1h 28min | Comedy | 2 July 1980 (USA)\r\nA man afraid to fly must ensure that a plane lands safely after the pilots become sick.\r\nDirectors: Jim Abrahams, David Zucker | \r\nWriters: Jim Abrahams (written for the screen by), David Zucker (written for the screen by) | \r\nStars: Robert Hays, Julie Hagerty, Leslie Nielsen\r\n\r\nGeneral\r\nComplete name                            : AirplaneAIRPLANE_SCE_Title1.mp4\r\nFormat                                   : MPEG-4\r\nFormat profile                           : Base Media\r\nCodec ID                                 : isom\r\nFile size                                : 833 MiB\r\nDuration                                 : 1h 27mn\r\nOverall bit rate                         : 1 328 Kbps\r\nMovie name                               : AIRPLANE_SCE\r\nGenre                                    : Comedy\r\nWriting application                      : Lavf54.6.100\r\n\r\nVideo\r\nID                                       : 1\r\nFormat                                   : AVC\r\nFormat/Info                              : Advanced Video Codec\r\nFormat profile                           :   \r\nFormat settings, CABAC                   : No\r\nFormat settings, ReFrames                : 6 frames\r\nCodec ID                                 : avc1\r\nCodec ID/Info                            : Advanced Video Coding\r\nDuration                                 : 1h 27mn\r\nBit rate                                 : 1 194 Kbps\r\nWidth                                    : 720 pixels\r\nHeight                                   : 404 pixels\r\nDisplay aspect ratio                     : 16:9\r\nFrame rate mode                          : Constant\r\nFrame rate                               : 29.970 fps\r\nColor space                              : YUV\r\nChroma subsampling                       : 4:2:0\r\nBit depth                                : 8 bits\r\nScan type                                : Progressive\r\nBits/(Pixel*Frame)                       : 0.137\r\nStream size                              : 748 MiB (90%)\r\n\r\nAudio\r\nID                                       : 2\r\nFormat                                   : AAC\r\nFormat/Info                              : Advanced Audio Codec\r\nFormat profile                           : LC\r\nCodec ID                                 : 40\r\nDuration                                 : 1h 27mn\r\nBit rate mode                            : Constant\r\nBit rate                                 : 128 Kbps\r\nChannel(s)                               : 2 channels\r\nChannel positions                        : Front: L R\r\nSampling rate                            : 44.1 KHz\r\nCompression mode                         : Lossy\r\nStream size                              : 80.1 MiB (10%)",
  "parsed": {
    "xt": "urn:btih:7b8d888d5c2f2afd1e0ae7676937952b4d6dce03",
    "dn": "Airplane(1980)MPEG-4[DaScubaDude]",
    "tr": [
      "udp://exodus.desync.com:6969",
      "udp://open.demonii.com:1337",
      "udp://tracker.coppersurfer.tk:6969",
      "udp://tracker.leechers-paradise.org:6969",
      "udp://zer0day.ch:1337"
    ],
    "infoHash": "7b8d888d5c2f2afd1e0ae7676937952b4d6dce03",
    "infoHashBuffer": {
      "type": "Buffer",
      "data": [
        123,
        141,
        136,
        141,
        92,
        47,
        42,
        253,
        30,
        10,
        231,
        103,
        105,
        55,
        149,
        43,
        77,
        109,
        206,
        3
      ]
    },
    "name": "Airplane(1980)MPEG-4[DaScubaDude]",
    "announce": [
      "udp://exodus.desync.com:6969",
      "udp://open.demonii.com:1337",
      "udp://tracker.coppersurfer.tk:6969",
      "udp://tracker.leechers-paradise.org:6969",
      "udp://zer0day.ch:1337"
    ],
    "urlList": []
  },
  "previous": 57,
  "peers": 91,
  "last_updated": "2016-12-25T05:35:16.917Z"
}